<svg width="238" height="182" viewBox="0 0 238 182" fill="none" xmlns="http://www.w3.org/2000/svg">
<path d="M155.919 47.2634C155.919 47.3874 155.457 47.8301 154.904 48.2197C154.142 48.7686 153.45 49.0343 152.181 49.3176C149.573 49.902 148.881 50.1322 148.812 50.451C148.72 50.7874 149.412 51.2833 150.635 51.7968L151.465 52.1333L151.765 51.726C152.204 51.0885 153.704 50.5041 154.765 50.5926C155.619 50.6458 155.642 50.6281 155.78 50.026C155.85 49.6895 155.919 49.1582 155.942 48.8749C155.942 48.4145 155.988 48.3968 156.15 48.6978C156.288 48.9457 156.357 48.7686 156.357 48.0249C156.38 47.4582 156.288 47.0155 156.15 47.0155C156.034 47.0155 155.919 47.1217 155.919 47.2634Z" fill="white"/>
<path d="M122.692 48.6976C116.577 49.4236 111.178 51.1414 104.948 54.3289C101.764 55.9582 98.3255 58.5791 96.4334 60.8281C94.3106 63.3604 94.4952 63.2187 93.8491 62.9531C93.1799 62.6698 92.9954 62.8469 91.4955 65.1136C90.2034 67.097 90.0419 67.6636 90.8033 67.5928C91.0802 67.5574 91.3109 67.5751 91.3109 67.6105C91.3109 67.6636 90.9648 68.6908 90.5264 69.8772C89.2573 73.4367 89.0035 74.9774 88.9804 79.1389L88.9574 82.8755L88.6574 81.3702C88.0113 78.2535 87.8959 78.2535 87.8729 81.4057C87.8498 84.2745 87.8267 84.363 87.3422 84.487C86.8576 84.5932 86.8576 84.6109 87.2729 84.8412C87.6191 85.0359 89.142 85.0891 94.8182 85.0891C101.694 85.0891 101.925 85.1068 101.925 85.4255C101.925 86.4349 100.91 87.3735 99.8023 87.4089L99.0408 87.4266L99.733 87.5506C100.125 87.6214 100.61 87.6214 100.818 87.5329C101.025 87.4621 101.556 87.3912 101.971 87.3912C102.687 87.4089 102.71 87.4089 102.271 87.6746C101.787 87.9402 101.279 88.0641 98.4639 88.5246C95.4181 89.0381 93.6184 89.1798 88.7728 89.2861C83.6041 89.3923 81.1813 89.2152 76.6819 88.3475C65.4678 86.2047 55.892 80.8744 50.3542 73.6846C49.2466 72.2325 48.3698 70.3908 48.116 68.9741C47.9083 67.8762 47.7237 74.5524 47.9314 75.9691C48.7159 82.0786 50.5388 85.9214 54.9921 90.9861C56.215 92.3497 57.5764 94.0497 58.0148 94.7226C58.4763 95.4133 59.2377 96.4581 59.7223 97.0602C61.4759 99.1498 62.6527 102.515 62.7912 105.773C62.8373 106.782 62.9758 107.685 63.1142 107.792C63.2527 107.898 64.3602 107.969 65.6293 107.969C70.2442 107.987 79.4969 106.127 91.5878 102.762C95.7643 101.611 99.3408 100.673 99.5715 100.673C99.8023 100.673 100.102 100.584 100.241 100.478C100.702 100.124 108.363 97.7686 108.57 97.9279C108.87 98.1581 107.786 98.7071 104.925 99.7696C103.217 100.425 100.771 101.257 99.5023 101.629C98.2332 102.001 96.1565 102.674 94.9105 103.099C92.0724 104.073 89.0266 104.976 87.5037 105.259C86.8807 105.383 85.6808 105.737 84.8732 106.039C84.0656 106.34 81.7351 106.942 79.6815 107.349C72.067 108.925 66.9215 109.881 65.6985 109.952C64.4756 110.023 64.4295 110.058 64.4756 110.519C64.4987 110.767 64.8217 111.316 65.1678 111.688C65.5139 112.077 66.0677 112.715 66.3677 113.104C66.6677 113.494 67.5445 114.326 68.3059 114.946C69.5289 115.955 70.0596 116.239 72.8054 117.248C75.5743 118.275 76.1281 118.559 77.5818 119.674C78.897 120.701 79.4508 121.304 80.4199 122.844C81.5736 124.668 83.7195 127.094 84.8732 127.873C85.1732 128.086 86.3269 128.635 87.4114 129.078C89.0266 129.751 89.7419 129.928 91.334 130.087C92.3954 130.193 94.0798 130.477 95.072 130.725C97.1026 131.22 97.2179 131.309 98.487 133.593C99.6869 135.718 100.887 137.029 103.033 138.587C105.294 140.216 105.64 140.376 107.578 140.695C110.416 141.155 110.347 141.137 110.416 141.598C110.463 141.828 110.601 142.129 110.739 142.235C111.155 142.625 111.362 142.306 111.086 141.704C110.901 141.35 110.809 140.039 110.809 138.215C110.809 135.896 110.901 135.081 111.224 134.249C111.455 133.682 111.685 133.257 111.755 133.31C111.824 133.363 111.709 134.142 111.478 135.046C111.201 136.232 111.132 137.188 111.224 138.552C111.409 141.279 111.985 142.784 113.554 144.626C114.847 146.131 115.054 146.538 114.616 146.538C114.178 146.538 114.385 146.84 115.447 147.654C116.923 148.823 118.769 149.62 121.63 150.346L124.099 150.983L128.091 150.93L132.083 150.877L135.175 149.673C138.867 148.256 139.628 147.796 141.428 145.936C144.22 143.05 144.843 141.491 144.843 137.295V134.479L147.658 131.805C149.204 130.335 151.396 128.369 152.504 127.448C156.819 123.889 162.841 117.142 164.802 113.689C165.195 112.98 165.841 112.024 166.233 111.546C168.379 108.978 171.725 101.523 172.878 96.6706C173.455 94.2622 173.824 87.2318 173.501 84.2391C173.04 79.6702 171.148 73.419 170.04 72.7284C169.233 72.2502 169.186 72.445 169.371 75.3847C169.625 79.1035 169.44 82.4682 168.863 84.4693C168.356 86.2933 166.902 89.6934 166.556 89.8704C166.418 89.9236 165.818 90.7205 165.195 91.6413C161.71 96.9008 156.334 101.434 148.973 105.295C147.058 106.286 145.005 107.455 144.405 107.863C142.42 109.226 142.467 109.12 142.19 116.257L141.959 122.543L130.883 122.596C124.792 122.632 118.262 122.596 116.346 122.543L112.885 122.419L113.047 116.203C113.162 111.528 113.301 109.633 113.578 108.659C113.762 107.933 113.993 107.296 114.039 107.243C114.224 107.119 114.178 109.102 113.947 113.069C113.808 115.07 113.647 117.903 113.578 119.391L113.439 122.065L114.962 122.136C115.977 122.171 116.577 122.118 116.739 121.976C117.039 121.693 116.785 121.392 116.231 121.392C116 121.392 115.723 121.304 115.631 121.197C115.516 121.038 117.223 121.02 122.369 121.091C126.153 121.144 131.668 121.144 134.575 121.073L139.882 120.949L140.136 115.991C140.413 110.873 140.505 110.483 141.659 108.341C142.282 107.172 142.49 106.977 144.012 106.092C144.935 105.56 146.712 104.64 147.981 104.02C151.165 102.479 152.481 101.664 154.88 99.7696C160.141 95.5727 161.733 93.9258 163.902 90.4725C166.418 86.4527 166.81 85.0537 167.133 78.8025C167.271 76.4826 167.202 75.7566 166.671 73.0294C166.002 69.5762 165.61 68.3543 164.802 67.2741C164.479 66.8668 164.018 66.0876 163.741 65.5386C163.487 64.9719 162.98 64.2636 162.633 63.9625C162.287 63.6438 161.664 62.9354 161.249 62.3864C160.441 61.2885 158.342 59.4114 157.926 59.4114C157.788 59.4114 157.442 59.5885 157.165 59.7832L156.634 60.1551L155.365 59.5885C154.65 59.2874 154.073 58.9686 154.073 58.9155C154.073 58.8447 153.565 58.5613 152.919 58.2957C150.889 57.4103 150.335 56.4186 151.35 55.4269L151.858 54.931L150.819 54.2581C149.666 53.4966 146.92 52.1508 146.505 52.1508C146.343 52.1508 145.812 51.956 145.305 51.708C144.405 51.2653 141.613 50.433 138.175 49.5653C133.998 48.5028 127.399 48.1309 122.692 48.6976ZM133.491 51.5487C137.229 52.0445 142.513 53.5675 145.258 54.9488C146.066 55.3383 147.012 55.7279 147.381 55.7811C147.774 55.8519 148.074 55.9936 148.074 56.0998C148.074 56.2238 148.881 56.7019 149.827 57.1978C151.812 58.2072 153.358 59.4114 156.657 62.5812C159.911 65.7157 161.549 68.2657 162.749 72.1971C163.902 75.8982 163.718 81.9723 162.38 85.0891C162.149 85.6203 161.803 86.5412 161.572 87.1256C161.364 87.71 160.88 88.684 160.511 89.3038C159.841 90.4725 157.419 93.3768 156.242 94.4747C154.857 95.7498 152.227 97.7331 152.227 97.5206C152.227 97.3967 152.735 96.8654 153.334 96.3696C154.488 95.431 156.842 93.1466 156.842 92.9695C156.842 92.9164 157.211 92.4913 157.649 92.0132C158.642 90.9684 160.141 88.5246 160.672 87.1079C160.88 86.5235 161.203 85.8506 161.387 85.5672C161.757 85.0182 161.387 84.8943 160.949 85.4433C160.672 85.762 160.395 85.7974 157.396 85.7974H154.142L153.311 87.0725C152.85 87.7808 151.927 88.9319 151.258 89.6402C148.327 92.6861 147.774 93.0757 141.267 96.83C139.236 97.9988 136.813 99.4509 135.89 100.035C134.229 101.08 130.768 104.215 130.768 104.657C130.768 104.781 130.514 105.312 130.214 105.826C129.914 106.357 129.499 107.296 129.291 107.933C128.76 109.492 128.322 113.034 128.622 113.264C128.783 113.388 128.922 113.246 129.014 112.821C129.199 112.042 129.476 111.918 130.122 112.254C130.399 112.414 130.86 112.538 131.16 112.538C131.506 112.538 131.691 112.662 131.737 112.927C131.806 113.37 132.452 113.547 133.952 113.582C134.806 113.6 134.967 113.547 135.152 113.14C135.29 112.892 135.383 112.29 135.383 111.776C135.383 110.2 136.606 107.402 137.113 107.792C137.206 107.845 137.113 108.288 136.929 108.783C136.444 110.041 136.283 111.174 136.121 114.769C136.006 116.735 135.867 117.921 135.729 117.903C135.613 117.868 135.475 117.319 135.429 116.664C135.36 115.406 134.921 114.627 134.921 115.725C134.921 116.062 134.829 116.434 134.737 116.558C134.529 116.823 129.983 116.558 129.499 116.257C129.314 116.133 129.107 115.761 129.014 115.389C128.737 114.043 128.576 114.078 128.46 115.53C128.391 116.575 128.253 117.053 128.022 117.107C127.491 117.248 127.814 110.253 128.437 108.11C129.014 106.127 130.491 103.79 132.175 102.16C134.183 100.212 136.029 99.0082 142.536 95.3247C148.627 91.8892 151.327 89.2152 153.934 84.0265C155.203 81.5296 155.55 78.2889 154.88 74.9951C153.588 68.4783 147.797 62.5989 139.951 59.8718C137.159 58.8978 134.437 58.2249 132.545 58.0124C130.006 57.7467 125.876 57.7644 123.546 58.0832C119.854 58.5791 115.308 59.9603 112.724 61.3947C111.409 62.1208 107.694 64.848 107.694 65.0959C107.694 65.1844 107.324 65.6803 106.863 66.1938C106.032 67.1147 104.579 69.3283 104.233 70.2668C104.048 70.7096 104.071 70.745 104.602 70.6387C105.017 70.5502 105.409 70.6387 105.871 70.9044C106.24 71.1169 107.14 71.3648 107.878 71.471C108.594 71.5773 109.401 71.7721 109.678 71.896C110.093 72.1085 110.209 72.0731 110.763 71.5419C111.109 71.2054 111.386 70.8158 111.386 70.6564C111.386 70.3554 113.785 67.8762 114.201 67.7522C114.316 67.7168 113.831 68.4074 113.093 69.2574C111.362 71.3471 111.478 71.1523 110.716 72.9586C110.232 74.0919 109.955 75.243 109.77 76.943C109.609 78.2535 109.401 79.4046 109.309 79.4754C109.217 79.5639 108.432 79.4577 107.555 79.2629C106.678 79.0858 104.971 78.8733 103.771 78.8202C102.571 78.767 101.533 78.6608 101.441 78.5722C101.348 78.5014 101.371 77.5628 101.487 76.4826C101.81 73.0471 103.54 68.9033 105.64 66.548C109.401 62.2979 113.208 59.8895 118.4 58.4374C119.761 58.0478 120.8 57.729 120.684 57.7113C120.592 57.6936 120.223 57.6228 119.9 57.5697C119.3 57.4634 119.3 57.4457 119.392 56.1884C119.531 54.2935 119.877 53.2487 120.408 53.1248C121.215 52.93 120.869 52.6643 119.992 52.7706C116.762 53.1779 110.647 55.3561 107.232 57.304C104.925 58.6145 102.017 60.8635 100.333 62.5812C97.7486 65.2553 95.372 69.4168 94.426 72.9586C93.9183 74.7826 93.6876 78.7848 94.0337 79.1212C94.2414 79.2983 94.749 79.3514 95.9719 79.2806C97.1026 79.2275 97.5871 79.2629 97.4256 79.3869C97.3102 79.4931 96.2719 79.5994 95.1413 79.6348C93.4107 79.6702 93.0646 79.6348 92.8569 79.3869C92.4877 78.9441 93.0415 74.1805 93.7337 72.0554C96.6411 62.9 105.663 55.3561 117.154 52.5404C122.83 51.1414 128.114 50.8226 133.491 51.5487ZM132.129 66.7605C134.206 67.1501 135.637 67.7345 137.506 69.0272C141.728 71.8783 143.159 74.393 142.928 78.4483C142.628 83.8495 140.99 85.5849 130.122 91.9601C125.438 94.7226 121.792 97.556 119.392 100.319L118.539 101.293V100.584C118.539 100.195 118.446 99.7519 118.331 99.628C117.962 99.1675 119.531 97.6623 123.846 94.3153C126.73 92.1017 132.129 88.56 134.344 87.4621C135.706 86.7891 138.29 84.788 139.19 83.6901C140.644 81.9015 141.567 78.6254 141.151 76.6951C140.874 75.3493 140.482 74.4461 140.044 74.0565C139.836 73.8794 139.513 73.4721 139.328 73.1357C139.121 72.7992 138.267 71.9492 137.413 71.2231C136.052 70.072 135.637 69.8241 133.883 69.2574C130.676 68.1949 129.268 68.0001 126.499 68.1949C124.746 68.3366 123.823 68.496 122.876 68.8501C121.146 69.5054 118.469 71.2408 118.192 71.9138C118.054 72.2148 117.823 72.5867 117.662 72.7461C117.477 72.9054 116.993 73.6492 116.554 74.4107L115.77 75.792V79.989C115.77 82.3088 115.839 84.2036 115.908 84.2036C116.323 84.2036 127.491 79.8827 128.945 79.1566C130.606 78.342 132.937 76.9076 135.175 75.367C136.19 74.6586 136.306 74.6232 136.306 74.9951C136.306 75.5618 131.714 79.015 129.96 79.7764C129.199 80.0952 127.93 80.715 127.168 81.14C125.23 82.1848 119.231 84.2922 117.177 84.6464C116.023 84.8589 115.031 84.912 114.062 84.8412C110.693 84.5755 107.14 84.3984 104.348 84.3984C101.464 84.3807 101.325 84.363 101.117 83.9734C100.841 83.513 99.7561 83.389 95.1182 83.3005C93.4799 83.2828 96.7103 83.2119 102.317 83.1411C111.432 83.0349 112.562 82.9994 113.116 82.7161L113.716 82.4151L113.578 80.166C113.393 77.5097 113.762 75.4909 114.847 73.3482C116.231 70.5856 118.192 68.9033 121.284 67.8053C122.253 67.4689 123.453 67.0261 123.961 66.849C125.161 66.424 129.914 66.3709 132.129 66.7605ZM147.612 78.0941C147.612 82.3973 145.674 85.7443 141.082 89.3038C139.559 90.4902 138.013 91.5351 129.845 96.7946C128.368 97.7331 126.891 98.8134 126.522 99.1853C126.153 99.5571 125.553 100.124 125.184 100.425C123.823 101.558 121.954 104.516 121.146 106.853C120.615 108.394 120.546 108.96 120.454 112.715C120.361 117.691 120.292 118.027 119.646 118.027C119.185 118.027 119.185 117.974 119.277 113.193C119.392 108.73 119.438 108.252 119.969 106.676C120.615 104.817 121.723 103.01 123.361 101.116C124.93 99.2915 130.099 95.4133 134.69 92.6153C141.844 88.2589 144.151 86.2756 145.628 83.2119C146.597 81.2109 146.874 80.2546 147.058 78.0941C147.243 76.1639 147.612 76.1639 147.612 78.0941ZM131.76 125.323C133.952 125.678 136.975 126.917 139.052 128.316C141.428 129.91 142.282 130.866 143.574 133.452C144.082 134.479 144.151 134.886 144.128 136.639C144.105 138.605 143.828 140.925 143.551 141.261C143.459 141.35 143.32 141.35 143.159 141.244C142.997 141.155 142.628 141.049 142.305 141.013C141.982 140.996 141.751 140.907 141.751 140.819C141.774 140.748 141.867 139.756 141.959 138.605C142.074 136.976 142.028 136.267 141.751 135.293C140.551 131.38 136.859 128.422 131.483 127.077C130.353 126.793 129.406 126.705 127.468 126.705C125.299 126.705 124.676 126.776 122.9 127.236C121.769 127.519 120.223 127.997 119.462 128.298L118.054 128.847L117.639 128.458C117.108 127.944 116.554 128.175 115.447 129.361C114.985 129.839 114.524 130.246 114.385 130.246C114.27 130.246 113.901 130.618 113.601 131.096C113.301 131.557 112.816 132.124 112.539 132.371L112.055 132.814L112.193 132.283C112.608 130.778 115.723 128.157 118.562 126.917C122.415 125.253 127.561 124.633 131.76 125.323ZM130.791 129.644C133.56 130.282 135.221 131.167 136.56 132.761C137.829 134.284 138.221 135.612 138.105 138.056C138.013 139.862 137.944 140.163 137.344 140.996C136.998 141.509 136.56 141.934 136.375 141.934C135.96 141.934 136.006 141.58 136.513 140.677C136.767 140.252 137.021 139.614 137.113 139.278C137.229 138.711 137.183 138.623 136.49 138.269C135.96 138.021 135.037 137.826 133.537 137.684C132.337 137.56 131.229 137.365 131.114 137.241C130.745 136.887 129.314 136.267 128.876 136.267C128.645 136.267 127.884 136.055 127.191 135.807C125.345 135.134 124.884 134.426 124.93 132.23C124.953 130.972 124.884 130.565 124.653 130.477C123.569 130.176 119 132.903 118.631 134.072C118.539 134.355 118.354 134.691 118.239 134.833C117.869 135.187 117.754 138.18 118.077 139.331C118.908 142.43 122.023 144.714 126.245 145.334C128.16 145.618 128.322 146.007 126.545 146.007C125.138 146.007 122.53 145.387 121.146 144.714C119.969 144.148 118.239 142.66 117.639 141.704C116 139.065 116.093 135.772 117.916 133.381C119.185 131.734 122.392 129.91 124.884 129.414C126.291 129.148 129.06 129.255 130.791 129.644Z" fill="white"/>
<path d="M150.45 61.1468C148.489 62.4572 148.281 62.6343 148.235 63.2364C148.189 63.626 148.327 63.7677 148.766 63.8916C149.273 64.0333 149.504 63.9448 150.612 63.1125C151.327 62.5812 152.296 61.9083 152.758 61.6072C153.704 60.9874 153.773 60.8103 153.242 60.403C152.642 59.9249 152.065 60.0843 150.45 61.1468Z" fill="white"/>
<path d="M156.38 51.0706C156.38 52.1508 156.45 52.4873 156.726 52.5758C156.957 52.6289 157.119 52.5227 157.211 52.2393C157.326 51.8674 157.488 51.7966 158.203 51.7966C160.026 51.7966 161.295 52.6289 163.464 55.1967C163.949 55.7634 164.364 55.8696 166.21 55.8696C168.31 55.8696 168.771 55.3384 167.225 54.6654C166.718 54.4529 166.118 54.0456 165.91 53.78C165.679 53.5144 165.149 52.93 164.687 52.4873C164.249 52.0268 163.695 51.4247 163.487 51.1237C162.91 50.2914 161.734 49.9903 159.103 49.9549C157.857 49.9549 156.842 49.8841 156.842 49.7955C156.842 49.7247 156.75 49.6716 156.611 49.6716C156.473 49.6716 156.38 50.2559 156.38 51.0706Z" fill="white"/>
<path d="M163.764 56.3478C162.933 56.3832 162.033 56.4363 161.757 56.4895C161.11 56.5957 161.064 56.9322 161.664 56.9322C162.218 56.9322 162.495 57.9593 162.264 59.2343C162.126 60.0666 162.172 60.1729 163.141 61.3063C163.695 61.9792 164.295 62.6875 164.433 62.9C164.572 63.1125 164.941 63.5021 165.241 63.7501C165.702 64.1219 165.818 64.1574 166.048 63.9449C166.533 63.5021 166.602 62.4927 166.21 61.5896C166.002 61.1292 165.771 60.1375 165.702 59.4114C165.633 58.6854 165.471 57.853 165.356 57.5697C165.172 57.1447 165.218 57.003 165.633 56.7905C166.025 56.5957 166.048 56.5072 165.818 56.3832C165.633 56.2947 165.448 56.2415 165.379 56.2593C165.31 56.277 164.595 56.3124 163.764 56.3478Z" fill="white"/>
<path d="M111.616 159.466C103.01 159.59 99.1562 159.767 95.7181 160.192C93.9183 160.405 93.8491 160.44 93.8491 160.971C93.8491 161.467 94.3798 161.91 95.0721 162.016C98.0256 162.477 101.533 162.707 106.078 162.742C108.94 162.778 113.255 162.902 115.654 163.008C122.461 163.344 135.729 163.061 145.189 162.37C149.712 162.034 150.266 161.91 150.266 161.148C150.266 160.67 150.173 160.599 148.881 160.316C145.443 159.502 144.128 159.431 132.152 159.378C125.876 159.342 116.623 159.395 111.616 159.466Z" fill="white"/>
<path d="M125.514 27.1588C124.678 28.2354 123.521 29.7983 122.943 30.6318C122.386 31.4827 121.7 32.2815 121.443 32.4378C121.122 32.5941 120.95 32.8546 120.95 33.1671C120.95 33.4623 120.629 34.0007 120.158 34.5043C117.972 36.8312 117.244 37.5084 116.922 37.5084C116.258 37.5084 111.181 35.112 105.589 32.16C105.096 31.9168 105.096 31.9168 105.225 32.4899C105.31 32.8198 105.739 33.8965 106.21 34.9036C107.71 38.0815 108.952 40.9815 109.317 42.1449C109.51 42.7701 109.788 43.3084 109.938 43.3605C110.067 43.3952 110.516 43.3084 110.881 43.1521C111.481 42.8916 111.609 42.8916 111.888 43.1174C112.166 43.3257 112.123 43.4126 111.631 43.7251C111.116 44.0551 111.074 44.1766 111.202 44.7671L111.331 45.4443L110.067 45.8958C109.36 46.1563 108.674 46.3646 108.545 46.3646C108.417 46.3646 108.31 46.5209 108.31 46.7119C108.31 47.0593 108.395 47.0766 111.695 47.0245C114.651 46.9724 115.294 46.903 116.965 46.4862C121.1 45.4269 122.621 45.2533 127.378 45.2359C132.284 45.2359 134.191 45.4443 138.519 46.4688C141.518 47.1808 143.789 47.285 144.667 46.7119C144.967 46.5209 145.546 46.3646 145.953 46.3646C147.024 46.3646 146.617 46.0694 145.203 45.8263C144.539 45.7048 143.639 45.479 143.232 45.3227C140.147 44.1072 132.734 42.718 129.049 42.6659C126.971 42.6311 127.142 42.7527 127.485 41.3982L127.613 40.9641L125.942 40.9988C125.021 41.0162 123.521 41.1204 122.621 41.2419C121.7 41.3635 120.95 41.3982 120.95 41.3114C120.95 41.1551 122.514 40.8946 125.45 40.5994L127.699 40.3737L127.635 38.8108C127.442 33.0108 127.121 25.266 127.099 25.2486C127.078 25.2313 126.371 26.0995 125.514 27.1588Z" fill="white"/>
<path d="M126.264 47.0072C127.249 47.0419 128.792 47.0419 129.692 47.0072C130.592 46.9898 129.799 46.9551 127.913 46.9551C126.028 46.9551 125.278 46.9898 126.264 47.0072Z" fill="white"/>
<path d="M130.373 27.2198C131.209 28.2965 132.366 29.8593 132.944 30.6929C133.501 31.5438 134.187 32.3425 134.444 32.4988C134.765 32.6551 134.937 32.9156 134.937 33.2282C134.937 33.5234 135.258 34.0617 135.73 34.5653C137.915 36.8922 138.643 37.5695 138.965 37.5695C139.629 37.5695 144.707 35.1731 150.298 32.221C150.791 31.9779 150.791 31.9779 150.663 32.5509C150.577 32.8809 150.148 33.9575 149.677 34.9647C148.177 38.1425 146.935 41.0425 146.571 42.206C146.378 42.8311 146.099 43.3694 145.949 43.4215C145.821 43.4562 145.371 43.3694 145.007 43.2131C144.407 42.9527 144.278 42.9527 144 43.1784C143.721 43.3868 143.764 43.4736 144.257 43.7862C144.771 44.1161 144.814 44.2377 144.685 44.8281L144.557 45.5053L145.821 45.9568C146.528 46.2173 147.213 46.4257 147.342 46.4257C147.47 46.4257 147.577 46.582 147.577 46.773C147.577 47.1203 147.492 47.1377 144.192 47.0856C141.236 47.0335 140.593 46.964 138.922 46.5472C134.787 45.488 133.266 45.3143 128.509 45.2969C123.603 45.2969 121.696 45.5053 117.369 46.5299C114.369 47.2418 112.098 47.346 111.22 46.773C110.92 46.582 110.341 46.4257 109.934 46.4257C108.863 46.4257 109.27 46.1305 110.684 45.8874C111.348 45.7658 112.248 45.5401 112.655 45.3838C115.74 44.1682 123.153 42.779 126.838 42.7269C128.917 42.6922 128.745 42.8137 128.402 41.4592L128.274 41.0251L129.945 41.0599C130.866 41.0772 132.366 41.1814 133.266 41.303C134.187 41.4245 134.937 41.4592 134.937 41.3724C134.937 41.2161 133.373 40.9557 130.438 40.6605L128.188 40.4347L128.252 38.8718C128.445 33.0719 128.767 25.327 128.788 25.3097C128.809 25.2923 129.516 26.1606 130.373 27.2198Z" fill="white"/>
</svg>
