<svg width="414" height="417" viewBox="0 0 414 417" fill="none" xmlns="http://www.w3.org/2000/svg">
<rect width="414" height="417" fill="white"/>
<path d="M254.844 117.957C254.844 118.151 254.189 118.845 253.404 119.456C252.325 120.316 251.343 120.733 249.544 121.177C245.847 122.093 244.866 122.454 244.768 122.954C244.637 123.481 245.618 124.259 247.352 125.064L248.53 125.591L248.955 124.953C249.577 123.953 251.703 123.037 253.208 123.176C254.418 123.259 254.451 123.231 254.647 122.287C254.746 121.76 254.844 120.927 254.876 120.483C254.876 119.761 254.942 119.733 255.171 120.205C255.367 120.594 255.465 120.316 255.465 119.15C255.498 118.262 255.367 117.568 255.171 117.568C255.007 117.568 254.844 117.735 254.844 117.957Z" fill="black"/>
<path d="M207.734 120.205C199.065 121.344 191.41 124.036 182.577 129.033C178.062 131.588 173.188 135.696 170.505 139.222C167.495 143.192 167.757 142.97 166.841 142.553C165.892 142.109 165.63 142.387 163.504 145.94C161.672 149.049 161.443 149.938 162.522 149.827C162.915 149.771 163.242 149.799 163.242 149.855C163.242 149.938 162.751 151.548 162.13 153.408C160.331 158.988 159.971 161.403 159.938 167.927L159.905 173.785L159.48 171.425C158.564 166.539 158.4 166.539 158.368 171.481C158.335 175.978 158.302 176.117 157.615 176.311C156.928 176.478 156.928 176.506 157.517 176.867C158.008 177.172 160.167 177.255 168.215 177.255C177.964 177.255 178.291 177.283 178.291 177.783C178.291 179.365 176.852 180.836 175.281 180.892L174.202 180.92L175.183 181.114C175.739 181.225 176.426 181.225 176.721 181.086C177.015 180.975 177.768 180.864 178.356 180.864C179.371 180.892 179.403 180.892 178.782 181.308C178.095 181.725 177.375 181.919 173.384 182.641C169.065 183.446 166.514 183.668 159.644 183.835C152.315 184.001 148.88 183.724 142.501 182.363C126.602 179.004 113.025 170.648 105.173 159.377C103.603 157.1 102.36 154.213 102 151.992C101.706 150.271 101.444 160.737 101.738 162.958C102.851 172.536 105.435 178.56 111.749 186.5C113.483 188.637 115.413 191.302 116.035 192.357C116.689 193.44 117.769 195.078 118.456 196.022C120.942 199.298 122.61 204.572 122.807 209.681C122.872 211.263 123.068 212.679 123.265 212.845C123.461 213.012 125.031 213.123 126.831 213.123C133.374 213.151 146.492 210.236 163.635 204.961C169.556 203.157 174.627 201.685 174.954 201.685C175.281 201.685 175.707 201.546 175.903 201.38C176.557 200.825 187.418 197.132 187.713 197.382C188.138 197.743 186.601 198.604 182.544 200.269C180.123 201.297 176.655 202.601 174.856 203.184C173.057 203.767 170.112 204.822 168.346 205.489C164.322 207.015 160.003 208.431 157.844 208.876C156.961 209.07 155.26 209.625 154.115 210.097C152.97 210.569 149.666 211.513 146.754 212.151C135.958 214.622 128.663 216.121 126.929 216.232C125.195 216.343 125.129 216.399 125.195 217.121C125.228 217.509 125.686 218.37 126.176 218.953C126.667 219.564 127.452 220.563 127.877 221.174C128.303 221.785 129.546 223.089 130.625 224.061C132.359 225.643 133.112 226.088 137.005 227.67C140.931 229.28 141.716 229.724 143.777 231.473C145.642 233.084 146.427 234.027 147.801 236.443C149.437 239.302 152.479 243.105 154.115 244.327C154.54 244.66 156.176 245.521 157.713 246.215C160.003 247.27 161.018 247.547 163.275 247.797C164.78 247.964 167.168 248.408 168.575 248.797C171.454 249.574 171.617 249.713 173.417 253.294C175.118 256.625 176.819 258.68 179.861 261.123C183.067 263.677 183.558 263.927 186.306 264.426C190.33 265.148 190.232 265.12 190.33 265.842C190.396 266.203 190.592 266.675 190.788 266.841C191.377 267.452 191.671 266.953 191.279 266.009C191.017 265.453 190.886 263.399 190.886 260.54C190.886 256.903 191.017 255.626 191.475 254.321C191.802 253.433 192.129 252.766 192.228 252.85C192.326 252.933 192.162 254.154 191.835 255.57C191.442 257.43 191.344 258.929 191.475 261.067C191.737 265.342 192.555 267.702 194.779 270.589C196.611 272.949 196.906 273.588 196.284 273.588C195.663 273.588 195.957 274.059 197.462 275.337C199.556 277.169 202.173 278.418 206.229 279.556L209.73 280.556L215.39 280.472L221.049 280.389L225.433 278.501C230.667 276.28 231.747 275.559 234.299 272.644C238.257 268.119 239.141 265.676 239.141 259.096V254.682L243.132 250.49C245.324 248.186 248.432 245.104 250.002 243.661C256.12 238.081 264.658 227.503 267.439 222.09C267.995 220.98 268.911 219.48 269.467 218.731C272.51 214.705 277.253 203.018 278.889 195.411C279.707 191.636 280.23 180.614 279.772 175.923C279.118 168.76 276.436 158.96 274.865 157.878C273.72 157.128 273.655 157.433 273.916 162.042C274.276 167.872 274.015 173.146 273.197 176.284C272.477 179.143 270.416 184.473 269.925 184.751C269.729 184.834 268.878 186.083 267.995 187.527C263.055 195.772 255.433 202.879 244.997 208.931C242.281 210.486 239.37 212.318 238.519 212.956C235.706 215.094 235.771 214.928 235.378 226.115L235.051 235.971L219.348 236.054C210.711 236.11 201.453 236.054 198.738 235.971L193.831 235.776L194.06 226.032C194.223 218.703 194.419 215.733 194.812 214.206C195.074 213.067 195.401 212.068 195.466 211.985C195.728 211.79 195.663 214.9 195.335 221.118C195.139 224.255 194.91 228.697 194.812 231.029L194.616 235.221L196.775 235.332C198.214 235.388 199.065 235.304 199.294 235.082C199.719 234.638 199.359 234.166 198.574 234.166C198.247 234.166 197.854 234.027 197.724 233.861C197.56 233.611 199.981 233.583 207.276 233.694C212.642 233.778 220.46 233.778 224.583 233.667L232.107 233.472L232.467 225.699C232.859 217.676 232.99 217.065 234.626 213.706C235.509 211.874 235.804 211.568 237.963 210.18C239.271 209.347 241.791 207.904 243.59 206.932C248.104 204.517 249.969 203.24 253.372 200.269C260.831 193.69 263.088 191.108 266.163 185.695C269.729 179.393 270.285 177.2 270.743 167.4C270.939 163.763 270.841 162.625 270.089 158.35C269.14 152.936 268.584 151.021 267.439 149.327C266.981 148.689 266.327 147.467 265.934 146.606C265.574 145.718 264.854 144.608 264.364 144.136C263.873 143.636 262.99 142.526 262.401 141.665C261.256 139.944 258.279 137.001 257.69 137.001C257.494 137.001 257.003 137.279 256.61 137.584L255.858 138.167L254.059 137.279C253.044 136.807 252.227 136.307 252.227 136.224C252.227 136.113 251.507 135.668 250.591 135.252C247.712 133.864 246.927 132.309 248.366 130.755L249.086 129.977L247.614 128.922C245.978 127.729 242.085 125.619 241.496 125.619C241.267 125.619 240.515 125.313 239.795 124.925C238.519 124.231 234.561 122.926 229.686 121.566C223.765 119.9 214.408 119.317 207.734 120.205ZM223.045 124.675C228.345 125.452 235.836 127.84 239.729 130.005C240.875 130.616 242.216 131.227 242.739 131.31C243.295 131.421 243.721 131.643 243.721 131.81C243.721 132.004 244.866 132.754 246.207 133.531C249.021 135.113 251.212 137.001 255.891 141.97C260.503 146.884 262.826 150.882 264.527 157.045C266.163 162.847 265.901 172.369 264.004 177.255C263.677 178.088 263.186 179.532 262.859 180.448C262.564 181.364 261.877 182.891 261.354 183.862C260.405 185.695 256.97 190.248 255.302 191.969C253.339 193.968 249.609 197.077 249.609 196.744C249.609 196.549 250.329 195.717 251.18 194.939C252.815 193.468 256.152 189.887 256.152 189.609C256.152 189.526 256.676 188.859 257.297 188.11C258.704 186.472 260.831 182.641 261.583 180.42C261.877 179.504 262.335 178.449 262.597 178.005C263.121 177.144 262.597 176.95 261.976 177.81C261.583 178.31 261.19 178.366 256.937 178.366H252.325L251.147 180.364C250.493 181.475 249.184 183.279 248.235 184.39C244.081 189.165 243.295 189.776 234.07 195.661C231.191 197.493 227.756 199.77 226.447 200.686C224.092 202.324 219.185 207.238 219.185 207.932C219.185 208.126 218.825 208.959 218.399 209.764C217.974 210.597 217.385 212.068 217.091 213.067C216.338 215.51 215.717 221.063 216.142 221.424C216.371 221.618 216.567 221.396 216.698 220.73C216.96 219.508 217.353 219.314 218.269 219.841C218.661 220.091 219.315 220.285 219.741 220.285C220.231 220.285 220.493 220.48 220.559 220.896C220.657 221.59 221.573 221.868 223.699 221.923C224.91 221.951 225.139 221.868 225.4 221.229C225.597 220.841 225.728 219.897 225.728 219.092C225.728 216.621 227.461 212.235 228.181 212.845C228.312 212.929 228.181 213.623 227.919 214.4C227.232 216.371 227.003 218.148 226.774 223.783C226.611 226.865 226.415 228.725 226.218 228.697C226.055 228.642 225.858 227.781 225.793 226.754C225.695 224.783 225.073 223.561 225.073 225.283C225.073 225.81 224.942 226.393 224.812 226.587C224.517 227.004 218.072 226.587 217.385 226.115C217.124 225.921 216.829 225.338 216.698 224.755C216.306 222.645 216.077 222.701 215.913 224.977C215.815 226.615 215.619 227.365 215.292 227.448C214.539 227.67 214.997 216.704 215.88 213.345C216.698 210.236 218.792 206.571 221.18 204.017C224.026 200.963 226.644 199.076 235.869 193.301C244.506 187.916 248.333 183.724 252.03 175.589C253.83 171.675 254.32 166.595 253.372 161.431C251.54 151.215 243.328 141.998 232.205 137.723C228.247 136.196 224.386 135.141 221.704 134.808C218.105 134.391 212.249 134.419 208.945 134.919C203.71 135.696 197.266 137.862 193.602 140.11C191.737 141.249 186.47 145.524 186.47 145.912C186.47 146.051 185.946 146.829 185.292 147.634C184.114 149.077 182.053 152.547 181.562 154.019C181.301 154.713 181.333 154.768 182.086 154.602C182.675 154.463 183.231 154.602 183.885 155.018C184.409 155.351 185.685 155.74 186.731 155.907C187.746 156.073 188.891 156.379 189.283 156.573C189.872 156.906 190.036 156.85 190.821 156.018C191.312 155.49 191.704 154.879 191.704 154.63C191.704 154.158 195.106 150.271 195.695 150.077C195.859 150.021 195.172 151.104 194.125 152.436C191.671 155.712 191.835 155.407 190.755 158.239C190.068 160.015 189.676 161.82 189.414 164.485C189.185 166.539 188.891 168.344 188.76 168.455C188.629 168.594 187.517 168.427 186.273 168.122C185.03 167.844 182.609 167.511 180.908 167.428C179.207 167.344 177.735 167.178 177.604 167.039C177.473 166.928 177.506 165.457 177.669 163.763C178.127 158.377 180.581 151.881 183.558 148.189C188.891 141.526 194.289 137.751 201.649 135.474C203.58 134.863 205.052 134.364 204.888 134.336C204.757 134.308 204.234 134.197 203.776 134.114C202.925 133.947 202.925 133.919 203.056 131.948C203.252 128.978 203.743 127.34 204.496 127.146C205.641 126.84 205.15 126.424 203.907 126.59C199.327 127.229 190.657 130.644 185.815 133.697C182.544 135.752 178.422 139.277 176.034 141.97C172.37 146.162 169 152.686 167.659 158.239C166.939 161.098 166.612 167.372 167.103 167.9C167.397 168.177 168.117 168.26 169.851 168.149C171.454 168.066 172.141 168.122 171.912 168.316C171.748 168.483 170.276 168.649 168.673 168.705C166.219 168.76 165.729 168.705 165.434 168.316C164.911 167.622 165.696 160.154 166.677 156.823C170.799 142.47 183.591 130.644 199.883 126.23C207.931 124.036 215.422 123.537 223.045 124.675ZM221.115 148.522C224.059 149.133 226.087 150.049 228.737 152.076C234.724 156.545 236.752 160.487 236.425 166.845C236 175.312 233.677 178.032 218.269 188.027C211.627 192.357 206.458 196.799 203.056 201.13L201.846 202.657V201.546C201.846 200.936 201.715 200.242 201.551 200.047C201.028 199.326 203.252 196.966 209.37 191.719C213.459 188.249 221.115 182.696 224.255 180.975C226.186 179.92 229.85 176.783 231.125 175.062C233.187 172.258 234.495 167.122 233.906 164.096C233.514 161.986 232.958 160.571 232.336 159.96C232.041 159.682 231.583 159.044 231.322 158.516C231.027 157.989 229.817 156.656 228.606 155.518C226.676 153.713 226.087 153.325 223.601 152.436C219.054 150.771 217.058 150.465 213.132 150.771C210.646 150.993 209.337 151.243 207.996 151.798C205.542 152.825 201.748 155.546 201.355 156.601C201.159 157.073 200.832 157.656 200.603 157.905C200.341 158.155 199.654 159.321 199.032 160.515L197.92 162.68V169.26C197.92 172.897 198.018 175.867 198.116 175.867C198.705 175.867 214.539 169.093 216.6 167.955C218.956 166.678 222.26 164.429 225.433 162.014C226.873 160.904 227.036 160.848 227.036 161.431C227.036 162.319 220.526 167.733 218.04 168.927C216.96 169.426 215.161 170.398 214.081 171.064C211.333 172.702 202.827 176.006 199.916 176.561C198.28 176.894 196.873 176.978 195.499 176.867C190.723 176.45 185.685 176.172 181.726 176.172C177.637 176.145 177.44 176.117 177.146 175.506C176.753 174.784 175.216 174.59 168.64 174.451C166.317 174.424 170.897 174.312 178.847 174.201C191.77 174.035 193.373 173.979 194.158 173.535L195.008 173.063L194.812 169.537C194.55 165.373 195.074 162.208 196.611 158.849C198.574 154.519 201.355 151.881 205.739 150.16C207.113 149.632 208.814 148.938 209.534 148.661C211.235 147.995 217.974 147.911 221.115 148.522ZM243.066 166.289C243.066 173.035 240.318 178.282 233.808 183.862C231.649 185.722 229.457 187.36 217.876 195.606C215.782 197.077 213.688 198.77 213.165 199.353C212.642 199.936 211.791 200.825 211.268 201.297C209.337 203.073 206.688 207.71 205.542 211.374C204.79 213.789 204.692 214.678 204.561 220.563C204.43 228.364 204.332 228.892 203.416 228.892C202.762 228.892 202.762 228.808 202.893 221.313C203.056 214.317 203.122 213.567 203.874 211.096C204.79 208.181 206.36 205.35 208.683 202.379C210.908 199.52 218.236 193.44 224.746 189.054C234.888 182.224 238.159 179.115 240.253 174.312C241.627 171.175 242.02 169.676 242.281 166.289C242.543 163.263 243.066 163.263 243.066 166.289ZM220.591 240.329C223.699 240.884 227.985 242.828 230.929 245.021C234.299 247.519 235.509 249.019 237.341 253.072C238.061 254.682 238.159 255.32 238.126 258.069C238.094 261.15 237.701 264.787 237.309 265.315C237.178 265.453 236.981 265.453 236.752 265.287C236.523 265.148 236 264.981 235.542 264.926C235.084 264.898 234.757 264.759 234.757 264.621C234.79 264.51 234.92 262.955 235.051 261.15C235.215 258.596 235.149 257.486 234.757 255.959C233.056 249.824 227.821 245.188 220.199 243.078C218.596 242.633 217.254 242.495 214.506 242.495C211.431 242.495 210.548 242.606 208.029 243.328C206.426 243.772 204.234 244.521 203.154 244.993L201.159 245.854L200.57 245.243C199.817 244.438 199.032 244.799 197.462 246.659C196.808 247.408 196.153 248.047 195.957 248.047C195.793 248.047 195.27 248.63 194.845 249.38C194.419 250.101 193.732 250.99 193.34 251.378L192.653 252.072L192.849 251.24C193.438 248.88 197.854 244.771 201.878 242.828C207.342 240.218 214.637 239.247 220.591 240.329ZM219.217 247.103C223.143 248.102 225.499 249.491 227.396 251.989C229.195 254.377 229.751 256.459 229.588 260.29C229.457 263.121 229.359 263.593 228.508 264.898C228.018 265.703 227.396 266.37 227.134 266.37C226.545 266.37 226.611 265.814 227.331 264.398C227.69 263.732 228.05 262.733 228.181 262.205C228.345 261.317 228.279 261.178 227.298 260.623C226.545 260.234 225.237 259.929 223.11 259.707C221.409 259.512 219.839 259.207 219.675 259.013C219.152 258.458 217.124 257.486 216.502 257.486C216.175 257.486 215.095 257.153 214.114 256.764C211.497 255.709 210.842 254.599 210.908 251.156C210.94 249.185 210.842 248.547 210.515 248.408C208.978 247.936 202.5 252.211 201.977 254.043C201.846 254.488 201.584 255.015 201.42 255.237C200.897 255.792 200.733 260.484 201.191 262.289C202.369 267.147 206.786 270.728 212.772 271.7C215.488 272.144 215.717 272.755 213.198 272.755C211.202 272.755 207.505 271.783 205.542 270.728C203.874 269.84 201.42 267.508 200.57 266.009C198.247 261.872 198.378 256.709 200.962 252.961C202.762 250.379 207.309 247.519 210.842 246.742C212.838 246.326 216.764 246.492 219.217 247.103Z" fill="black"/>
<path d="M247.09 139.722C244.31 141.776 244.015 142.054 243.95 142.997C243.884 143.608 244.081 143.83 244.702 144.025C245.422 144.247 245.749 144.108 247.319 142.803C248.333 141.97 249.708 140.915 250.362 140.443C251.703 139.472 251.801 139.194 251.049 138.556C250.198 137.806 249.38 138.056 247.09 139.722Z" fill="black"/>
<path d="M255.498 123.925C255.498 125.619 255.596 126.146 255.989 126.285C256.316 126.368 256.545 126.202 256.676 125.758C256.839 125.175 257.068 125.064 258.082 125.064C260.667 125.064 262.466 126.368 265.541 130.394C266.228 131.282 266.817 131.449 269.435 131.449C272.412 131.449 273.066 130.616 270.874 129.561C270.154 129.228 269.304 128.589 269.009 128.173C268.682 127.756 267.93 126.84 267.275 126.146C266.654 125.424 265.869 124.481 265.574 124.009C264.756 122.704 263.088 122.232 259.358 122.176C257.592 122.176 256.152 122.065 256.152 121.927C256.152 121.815 256.021 121.732 255.825 121.732C255.629 121.732 255.498 122.648 255.498 123.925Z" fill="black"/>
<path d="M265.967 132.198C264.789 132.254 263.513 132.337 263.121 132.42C262.205 132.587 262.139 133.114 262.99 133.114C263.775 133.114 264.167 134.725 263.84 136.723C263.644 138.028 263.709 138.195 265.083 139.971C265.869 141.026 266.719 142.137 266.915 142.47C267.112 142.803 267.635 143.414 268.061 143.803C268.715 144.386 268.878 144.441 269.206 144.108C269.893 143.414 269.991 141.831 269.435 140.416C269.14 139.694 268.813 138.139 268.715 137.001C268.617 135.863 268.388 134.558 268.224 134.114C267.962 133.448 268.028 133.225 268.617 132.892C269.173 132.587 269.206 132.448 268.878 132.254C268.617 132.115 268.355 132.032 268.257 132.059C268.159 132.087 267.144 132.143 265.967 132.198Z" fill="black"/>
<path d="M192.031 293.853C179.829 294.048 174.365 294.325 169.491 294.992C166.939 295.325 166.841 295.38 166.841 296.213C166.841 296.991 167.593 297.685 168.575 297.851C172.762 298.573 177.735 298.934 184.18 298.989C188.236 299.045 194.354 299.239 197.756 299.406C207.407 299.933 226.218 299.489 239.631 298.406C246.043 297.879 246.829 297.685 246.829 296.491C246.829 295.741 246.698 295.63 244.866 295.186C239.991 293.909 238.126 293.798 221.147 293.715C212.249 293.659 199.13 293.742 192.031 293.853Z" fill="black"/>
<path d="M211.736 86.4391C210.551 88.127 208.911 90.577 208.09 91.8837C207.301 93.2176 206.329 94.4699 205.964 94.7149C205.508 94.9599 205.265 95.3682 205.265 95.8582C205.265 96.321 204.81 97.1649 204.142 97.9544C201.043 101.602 200.01 102.664 199.555 102.664C198.613 102.664 191.414 98.9072 183.486 94.2793C182.787 93.8982 182.787 93.8982 182.969 94.7965C183.091 95.3138 183.698 97.0016 184.367 98.5805C186.493 103.562 188.255 108.108 188.771 109.932C189.045 110.912 189.439 111.756 189.652 111.838C189.834 111.892 190.472 111.756 190.989 111.511C191.839 111.103 192.021 111.103 192.416 111.457C192.811 111.784 192.75 111.92 192.052 112.41C191.323 112.927 191.262 113.117 191.444 114.043L191.627 115.105L189.834 115.813C188.832 116.221 187.86 116.548 187.678 116.548C187.495 116.548 187.344 116.793 187.344 117.092C187.344 117.636 187.465 117.664 192.143 117.582C196.335 117.5 197.246 117.391 199.615 116.738C205.478 115.078 207.635 114.805 214.378 114.778C221.334 114.778 224.038 115.105 230.174 116.711C234.427 117.827 237.646 117.99 238.892 117.092C239.317 116.793 240.137 116.548 240.714 116.548C242.233 116.548 241.656 116.085 239.651 115.704C238.71 115.513 237.434 115.159 236.857 114.914C232.482 113.009 221.972 110.831 216.748 110.749C213.801 110.695 214.044 110.885 214.53 108.762L214.712 108.081L212.343 108.136C211.037 108.163 208.911 108.326 207.635 108.517C206.329 108.707 205.265 108.762 205.265 108.626C205.265 108.381 207.483 107.972 211.644 107.51L214.834 107.156L214.743 104.706C214.469 95.6132 214.014 83.4719 213.983 83.4446C213.953 83.4174 212.951 84.7786 211.736 86.4391Z" fill="black"/>
<path d="M212.799 117.555C214.196 117.609 216.383 117.609 217.659 117.555C218.935 117.528 217.811 117.473 215.138 117.473C212.465 117.473 211.401 117.528 212.799 117.555Z" fill="black"/>
<path d="M218.626 86.5348C219.81 88.2227 221.451 90.6727 222.271 91.9794C223.061 93.3133 224.033 94.5656 224.397 94.8106C224.853 95.0556 225.096 95.4639 225.096 95.9539C225.096 96.4167 225.551 97.2606 226.22 98.0501C229.318 101.698 230.351 102.76 230.806 102.76C231.748 102.76 238.947 99.0029 246.875 94.375C247.574 93.9939 247.574 93.9939 247.392 94.8922C247.27 95.4095 246.663 97.0973 245.995 98.6762C243.868 103.658 242.106 108.204 241.59 110.028C241.317 111.008 240.922 111.852 240.709 111.934C240.527 111.988 239.889 111.852 239.373 111.607C238.522 111.199 238.34 111.199 237.945 111.553C237.55 111.879 237.611 112.015 238.309 112.505C239.038 113.023 239.099 113.213 238.917 114.139L238.735 115.2L240.527 115.908C241.529 116.317 242.501 116.643 242.684 116.643C242.866 116.643 243.018 116.888 243.018 117.188C243.018 117.732 242.896 117.759 238.218 117.678C234.026 117.596 233.115 117.487 230.746 116.834C224.883 115.173 222.726 114.901 215.983 114.874C209.027 114.874 206.323 115.2 200.187 116.807C195.935 117.923 192.715 118.086 191.469 117.188C191.044 116.888 190.224 116.643 189.647 116.643C188.128 116.643 188.705 116.18 190.71 115.799C191.652 115.609 192.927 115.255 193.505 115.01C197.879 113.104 208.389 110.926 213.614 110.845C216.56 110.79 216.317 110.981 215.831 108.858L215.649 108.177L218.018 108.231C219.324 108.259 221.451 108.422 222.726 108.613C224.033 108.803 225.096 108.858 225.096 108.721C225.096 108.476 222.878 108.068 218.717 107.605L215.527 107.251L215.618 104.801C215.892 95.7089 216.347 83.5676 216.378 83.5403C216.408 83.5131 217.411 84.8743 218.626 86.5348Z" fill="black"/>
<path d="M134.794 381.904H131.086C130.078 381.904 129.322 381.616 128.818 381.04C128.314 380.488 128.062 379.792 128.062 378.952V376.396C126.622 376.252 125.314 375.868 124.138 375.244C122.962 374.62 121.966 373.768 121.15 372.688C120.334 371.584 119.698 370.264 119.242 368.728C118.81 367.168 118.594 365.404 118.594 363.436C118.594 361.324 118.846 359.464 119.35 357.856C119.854 356.248 120.562 354.892 121.474 353.788C122.41 352.684 123.526 351.856 124.822 351.304C126.142 350.728 127.618 350.44 129.25 350.44C130.858 350.44 132.322 350.728 133.642 351.304C134.962 351.856 136.078 352.684 136.99 353.788C137.926 354.892 138.646 356.248 139.15 357.856C139.654 359.464 139.906 361.324 139.906 363.436C139.906 367.3 139.102 370.324 137.494 372.508C135.886 374.668 133.702 375.94 130.942 376.324V379.384H134.794V381.904ZM129.25 373.732C130.33 373.732 131.326 373.54 132.238 373.156C133.15 372.772 133.93 372.22 134.578 371.5C135.25 370.78 135.766 369.916 136.126 368.908C136.486 367.9 136.666 366.772 136.666 365.524V361.348C136.666 360.1 136.486 358.972 136.126 357.964C135.766 356.956 135.25 356.092 134.578 355.372C133.93 354.652 133.15 354.1 132.238 353.716C131.326 353.332 130.33 353.14 129.25 353.14C128.17 353.14 127.174 353.332 126.262 353.716C125.35 354.1 124.558 354.652 123.886 355.372C123.238 356.092 122.734 356.956 122.374 357.964C122.014 358.972 121.834 360.1 121.834 361.348V365.524C121.834 366.772 122.014 367.9 122.374 368.908C122.734 369.916 123.238 370.78 123.886 371.5C124.558 372.22 125.35 372.772 126.262 373.156C127.174 373.54 128.17 373.732 129.25 373.732ZM156.502 372.976H156.358C156.166 373.408 155.926 373.84 155.638 374.272C155.374 374.68 155.038 375.052 154.63 375.388C154.222 375.7 153.73 375.952 153.154 376.144C152.578 376.336 151.906 376.432 151.138 376.432C149.218 376.432 147.694 375.82 146.566 374.596C145.438 373.348 144.874 371.596 144.874 369.34V357.424H147.754V368.836C147.754 372.172 149.17 373.84 152.002 373.84C152.578 373.84 153.13 373.768 153.658 373.624C154.21 373.48 154.69 373.264 155.098 372.976C155.53 372.688 155.866 372.328 156.106 371.896C156.37 371.44 156.502 370.9 156.502 370.276V357.424H159.382V376H156.502V372.976ZM172.499 376.432C171.227 376.432 170.075 376.204 169.043 375.748C168.035 375.292 167.159 374.644 166.415 373.804C165.695 372.94 165.131 371.92 164.723 370.744C164.339 369.544 164.147 368.2 164.147 366.712C164.147 365.248 164.339 363.916 164.723 362.716C165.131 361.516 165.695 360.496 166.415 359.656C167.159 358.792 168.035 358.132 169.043 357.676C170.075 357.22 171.227 356.992 172.499 356.992C173.747 356.992 174.863 357.22 175.847 357.676C176.831 358.132 177.671 358.768 178.367 359.584C179.063 360.376 179.591 361.324 179.951 362.428C180.335 363.532 180.527 364.744 180.527 366.064V367.432H167.171V368.296C167.171 369.088 167.291 369.832 167.531 370.528C167.795 371.2 168.155 371.788 168.611 372.292C169.091 372.796 169.667 373.192 170.339 373.48C171.035 373.768 171.815 373.912 172.679 373.912C173.855 373.912 174.875 373.636 175.739 373.084C176.627 372.532 177.311 371.74 177.791 370.708L179.843 372.184C179.243 373.456 178.307 374.488 177.035 375.28C175.763 376.048 174.251 376.432 172.499 376.432ZM172.499 359.404C171.707 359.404 170.987 359.548 170.339 359.836C169.691 360.1 169.127 360.484 168.647 360.988C168.191 361.492 167.831 362.092 167.567 362.788C167.303 363.46 167.171 364.204 167.171 365.02V365.272H177.431V364.876C177.431 363.22 176.975 361.9 176.063 360.916C175.175 359.908 173.987 359.404 172.499 359.404ZM190.853 376.432C189.125 376.432 187.673 376.108 186.497 375.46C185.345 374.788 184.349 373.9 183.509 372.796L185.561 371.14C186.281 372.052 187.085 372.76 187.973 373.264C188.861 373.744 189.893 373.984 191.069 373.984C192.293 373.984 193.241 373.72 193.913 373.192C194.609 372.664 194.957 371.92 194.957 370.96C194.957 370.24 194.717 369.628 194.237 369.124C193.781 368.596 192.941 368.236 191.717 368.044L190.241 367.828C189.377 367.708 188.585 367.528 187.865 367.288C187.145 367.024 186.509 366.688 185.957 366.28C185.429 365.848 185.009 365.32 184.697 364.696C184.409 364.072 184.265 363.328 184.265 362.464C184.265 361.552 184.433 360.76 184.769 360.088C185.105 359.392 185.561 358.816 186.137 358.36C186.737 357.904 187.445 357.568 188.261 357.352C189.077 357.112 189.953 356.992 190.889 356.992C192.401 356.992 193.661 357.256 194.669 357.784C195.701 358.312 196.601 359.044 197.369 359.98L195.461 361.708C195.053 361.132 194.453 360.616 193.661 360.16C192.869 359.68 191.873 359.44 190.673 359.44C189.473 359.44 188.561 359.704 187.937 360.232C187.337 360.736 187.037 361.432 187.037 362.32C187.037 363.232 187.337 363.892 187.937 364.3C188.561 364.708 189.449 365.008 190.601 365.2L192.041 365.416C194.105 365.728 195.569 366.328 196.433 367.216C197.297 368.08 197.729 369.22 197.729 370.636C197.729 372.436 197.117 373.852 195.893 374.884C194.669 375.916 192.989 376.432 190.853 376.432ZM206.674 376C205.666 376 204.898 375.724 204.37 375.172C203.866 374.596 203.614 373.852 203.614 372.94V359.944H200.554V357.424H202.282C202.906 357.424 203.326 357.304 203.542 357.064C203.782 356.8 203.902 356.356 203.902 355.732V352.276H206.494V357.424H210.562V359.944H206.494V373.48H210.274V376H206.674Z" fill="#30B0C7"/>
<path d="M235.063 354.832H234.883L232.759 359.044L226.747 369.988L220.735 359.044L218.611 354.832H218.431V376H215.479V350.872H219.511L226.711 364.408H226.891L234.127 350.872H238.015V376H235.063V354.832ZM257.906 376C256.826 376 256.046 375.712 255.566 375.136C255.11 374.56 254.822 373.84 254.702 372.976H254.522C254.114 374.128 253.442 374.992 252.506 375.568C251.57 376.144 250.454 376.432 249.158 376.432C247.19 376.432 245.654 375.928 244.55 374.92C243.47 373.912 242.93 372.544 242.93 370.816C242.93 369.064 243.566 367.72 244.838 366.784C246.134 365.848 248.138 365.38 250.85 365.38H254.522V363.544C254.522 362.224 254.162 361.216 253.442 360.52C252.722 359.824 251.618 359.476 250.13 359.476C249.002 359.476 248.054 359.728 247.286 360.232C246.542 360.736 245.918 361.408 245.414 362.248L243.686 360.628C244.19 359.62 244.994 358.768 246.098 358.072C247.202 357.352 248.594 356.992 250.274 356.992C252.53 356.992 254.282 357.544 255.53 358.648C256.778 359.752 257.402 361.288 257.402 363.256V373.48H259.526V376H257.906ZM249.626 373.984C250.346 373.984 251.006 373.9 251.606 373.732C252.206 373.564 252.722 373.324 253.154 373.012C253.586 372.7 253.922 372.34 254.162 371.932C254.402 371.524 254.522 371.08 254.522 370.6V367.54H250.706C249.05 367.54 247.838 367.78 247.07 368.26C246.326 368.74 245.954 369.436 245.954 370.348V371.104C245.954 372.016 246.278 372.724 246.926 373.228C247.598 373.732 248.498 373.984 249.626 373.984ZM269.216 376.432C267.488 376.432 266.036 376.108 264.86 375.46C263.708 374.788 262.712 373.9 261.872 372.796L263.924 371.14C264.644 372.052 265.448 372.76 266.336 373.264C267.224 373.744 268.256 373.984 269.432 373.984C270.656 373.984 271.604 373.72 272.276 373.192C272.972 372.664 273.32 371.92 273.32 370.96C273.32 370.24 273.08 369.628 272.6 369.124C272.144 368.596 271.304 368.236 270.08 368.044L268.604 367.828C267.74 367.708 266.948 367.528 266.228 367.288C265.508 367.024 264.872 366.688 264.32 366.28C263.792 365.848 263.372 365.32 263.06 364.696C262.772 364.072 262.628 363.328 262.628 362.464C262.628 361.552 262.796 360.76 263.132 360.088C263.468 359.392 263.924 358.816 264.5 358.36C265.1 357.904 265.808 357.568 266.624 357.352C267.44 357.112 268.316 356.992 269.252 356.992C270.764 356.992 272.024 357.256 273.032 357.784C274.064 358.312 274.964 359.044 275.732 359.98L273.824 361.708C273.416 361.132 272.816 360.616 272.024 360.16C271.232 359.68 270.236 359.44 269.036 359.44C267.836 359.44 266.924 359.704 266.3 360.232C265.7 360.736 265.4 361.432 265.4 362.32C265.4 363.232 265.7 363.892 266.3 364.3C266.924 364.708 267.812 365.008 268.964 365.2L270.404 365.416C272.468 365.728 273.932 366.328 274.796 367.216C275.66 368.08 276.092 369.22 276.092 370.636C276.092 372.436 275.48 373.852 274.256 374.884C273.032 375.916 271.352 376.432 269.216 376.432ZM285.037 376C284.029 376 283.261 375.724 282.733 375.172C282.229 374.596 281.977 373.852 281.977 372.94V359.944H278.917V357.424H280.645C281.269 357.424 281.689 357.304 281.905 357.064C282.145 356.8 282.265 356.356 282.265 355.732V352.276H284.857V357.424H288.925V359.944H284.857V373.48H288.637V376H285.037Z" fill="black"/>
</svg>
