<svg width="127" height="118" viewBox="0 0 127 118" fill="none" xmlns="http://www.w3.org/2000/svg">
<path d="M108.919 1.17599C108.919 1.29995 108.457 1.74267 107.904 2.13226C107.142 2.68123 106.45 2.94686 105.181 3.2302C102.573 3.81459 101.881 4.04481 101.812 4.36357C101.72 4.70003 102.412 5.19588 103.635 5.70943L104.465 6.0459L104.765 5.6386C105.204 5.00108 106.704 4.41669 107.765 4.50524C108.619 4.55836 108.642 4.54065 108.78 3.93856C108.85 3.60209 108.919 3.07083 108.942 2.78749C108.942 2.32706 108.988 2.30935 109.15 2.6104C109.288 2.85832 109.357 2.68123 109.357 1.93746C109.38 1.37078 109.288 0.928065 109.15 0.928065C109.034 0.928065 108.919 1.03432 108.919 1.17599Z" fill="black"/>
<path d="M75.6919 2.61016C69.5772 3.33622 64.1779 5.05397 57.9478 8.24154C54.7636 9.87075 51.3255 12.4916 49.4334 14.7407C47.3106 17.273 47.4952 17.1313 46.8491 16.8657C46.1799 16.5824 45.9954 16.7595 44.4955 19.0262C43.2034 21.0096 43.0419 21.5762 43.8033 21.5054C44.0802 21.47 44.3109 21.4877 44.3109 21.5231C44.3109 21.5762 43.9648 22.6034 43.5264 23.7898C42.2573 27.3493 42.0035 28.89 41.9804 33.0515L41.9574 36.7881L41.6574 35.2828C41.0113 32.1661 40.8959 32.1661 40.8729 35.3182C40.8498 38.1871 40.8267 38.2756 40.3422 38.3996C39.8576 38.5058 39.8576 38.5235 40.2729 38.7538C40.6191 38.9485 42.142 39.0017 47.8182 39.0017C54.6943 39.0017 54.9251 39.0194 54.9251 39.3381C54.9251 40.3475 53.9098 41.2861 52.8023 41.3215L52.0408 41.3392L52.733 41.4632C53.1253 41.534 53.6099 41.534 53.8175 41.4455C54.0252 41.3746 54.5559 41.3038 54.9712 41.3038C55.6865 41.3215 55.7096 41.3215 55.2712 41.5872C54.7866 41.8528 54.279 41.9767 51.4639 42.4372C48.4181 42.9507 46.6184 43.0924 41.7728 43.1987C36.6041 43.3049 34.1813 43.1278 29.6819 42.2601C18.4678 40.1173 8.89198 34.787 3.35417 27.5972C2.2466 26.1451 1.36978 24.3034 1.11597 22.8867C0.908298 21.7888 0.723705 28.465 0.931373 29.8817C1.7159 35.9912 3.53876 39.834 7.99209 44.8987C9.21502 46.2623 10.5764 47.9623 11.0148 48.6352C11.4763 49.3259 12.2377 50.3707 12.7223 50.9728C14.4759 53.0624 15.6527 56.4271 15.7912 59.6855C15.8373 60.6949 15.9758 61.5981 16.1142 61.7043C16.2527 61.8106 17.3602 61.8814 18.6293 61.8814C23.2442 61.8991 32.4969 60.0397 44.5878 56.675C48.7643 55.524 52.3408 54.5854 52.5715 54.5854C52.8023 54.5854 53.1022 54.4968 53.2407 54.3906C53.7021 54.0364 61.3628 51.6812 61.5705 51.8405C61.8704 52.0707 60.7859 52.6197 57.9247 53.6822C56.2172 54.3375 53.7714 55.1698 52.5023 55.5417C51.2332 55.9135 49.1565 56.5865 47.9105 57.0115C45.0724 57.9855 42.0266 58.8886 40.5037 59.172C39.8807 59.2959 38.6808 59.6501 37.8732 59.9511C37.0656 60.2522 34.7351 60.8543 32.6815 61.2616C25.067 62.8377 19.9215 63.7939 18.6985 63.8648C17.4756 63.9356 17.4295 63.971 17.4756 64.4315C17.4987 64.6794 17.8217 65.2284 18.1678 65.6002C18.5139 65.9898 19.0677 66.6274 19.3677 67.0169C19.6677 67.4065 20.5445 68.2388 21.3059 68.8587C22.5289 69.8681 23.0596 70.1514 25.8054 71.1608C28.5743 72.1879 29.1281 72.4712 30.5818 73.5869C31.897 74.614 32.4508 75.2161 33.4199 76.7568C34.5736 78.5808 36.7195 81.0069 37.8732 81.7861C38.1732 81.9986 39.3269 82.5475 40.4114 82.9903C42.0266 83.6632 42.7419 83.8403 44.334 83.9997C45.3954 84.1059 47.0798 84.3892 48.072 84.6372C50.1026 85.133 50.2179 85.2216 51.487 87.506C52.6869 89.631 53.8867 90.9415 56.0326 92.4999C58.2939 94.1291 58.64 94.2884 60.5783 94.6072C63.4164 95.0676 63.3472 95.0499 63.4164 95.5103C63.4626 95.7406 63.601 96.0416 63.7394 96.1479C64.1548 96.5375 64.3624 96.2187 64.0856 95.6166C63.901 95.2624 63.8087 93.952 63.8087 92.128C63.8087 89.8081 63.901 88.9935 64.224 88.1612C64.4547 87.5945 64.6855 87.1695 64.7547 87.2226C64.8239 87.2758 64.7086 88.055 64.4778 88.9581C64.2009 90.1446 64.1317 91.1009 64.224 92.4644C64.4086 95.1916 64.9855 96.6968 66.5545 98.5385C67.8467 100.044 68.0543 100.451 67.6159 100.451C67.1775 100.451 67.3852 100.752 68.4466 101.567C69.9233 102.736 71.7693 103.532 74.6305 104.258L77.0994 104.896L81.0913 104.843L85.0831 104.79L88.1751 103.586C91.8669 102.169 92.6284 101.708 94.4282 99.849C97.2202 96.9625 97.8432 95.4041 97.8432 91.2071V88.3914L100.658 85.7174C102.204 84.2476 104.396 82.2819 105.504 81.361C109.819 77.8016 115.841 71.0545 117.802 67.6013C118.195 66.893 118.841 65.9367 119.233 65.4586C121.379 62.8908 124.725 55.4354 125.878 50.5832C126.455 48.1748 126.824 41.1444 126.501 38.1517C126.04 33.5828 124.148 27.3316 123.04 26.641C122.233 26.1628 122.186 26.3576 122.371 29.2973C122.625 33.0161 122.44 36.3808 121.863 38.3819C121.356 40.2059 119.902 43.606 119.556 43.783C119.418 43.8362 118.818 44.6331 118.195 45.5539C114.71 50.8134 109.334 55.3469 101.973 59.2074C100.058 60.1991 98.0047 61.3678 97.4047 61.7751C95.4204 63.1387 95.4665 63.0325 95.1896 70.1691L94.9589 76.4557L83.8833 76.5088C77.7917 76.5443 71.2616 76.5088 69.3465 76.4557L65.8853 76.3318L66.0469 70.116C66.1622 65.4409 66.3007 63.546 66.5776 62.572C66.7622 61.846 66.9929 61.2085 67.0391 61.1553C67.2237 61.0314 67.1775 63.0148 66.9468 66.9815C66.8083 68.9826 66.6468 71.816 66.5776 73.3036L66.4391 75.9776L67.962 76.0484C68.9773 76.0838 69.5772 76.0307 69.7387 75.889C70.0387 75.6057 69.7849 75.3046 69.2311 75.3046C69.0004 75.3046 68.7235 75.2161 68.6312 75.1098C68.5158 74.9505 70.2233 74.9328 75.3689 75.0036C79.153 75.0567 84.6678 75.0567 87.5751 74.9859L92.8822 74.8619L93.136 69.9035C93.4129 64.7856 93.5052 64.396 94.6589 62.2533C95.2819 61.0845 95.4896 60.8897 97.0125 60.0043C97.9355 59.473 99.7122 58.5522 100.981 57.9323C104.165 56.3917 105.481 55.5771 107.88 53.6822C113.141 49.4853 114.733 47.8383 116.902 44.3851C119.418 40.3652 119.81 38.9663 120.133 32.7151C120.271 30.3952 120.202 29.6692 119.671 26.942C119.002 23.4888 118.61 22.2669 117.802 21.1867C117.479 20.7794 117.018 20.0002 116.741 19.4512C116.487 18.8845 115.98 18.1762 115.633 17.8751C115.287 17.5564 114.664 16.848 114.249 16.299C113.441 15.2011 111.342 13.324 110.926 13.324C110.788 13.324 110.442 13.501 110.165 13.6958L109.634 14.0677L108.365 13.501C107.65 13.2 107.073 12.8812 107.073 12.8281C107.073 12.7573 106.565 12.4739 105.919 12.2083C103.889 11.3229 103.335 10.3312 104.35 9.33949L104.858 8.84364L103.819 8.17071C102.666 7.40923 99.9198 6.06337 99.5045 6.06337C99.343 6.06337 98.8123 5.86857 98.3046 5.62065C97.4047 5.17793 94.6128 4.34562 91.1747 3.47789C86.9983 2.41536 80.399 2.04348 75.6919 2.61016ZM86.4906 5.46127C90.2287 5.95711 95.5127 7.48007 98.2585 8.86135C99.0661 9.25094 100.012 9.64054 100.381 9.69366C100.774 9.7645 101.074 9.90617 101.074 10.0124C101.074 10.1364 101.881 10.6145 102.827 11.1104C104.812 12.1198 106.358 13.324 109.657 16.4938C112.911 19.6283 114.549 22.1783 115.749 26.1097C116.902 29.8108 116.718 35.8849 115.38 39.0017C115.149 39.5329 114.803 40.4538 114.572 41.0382C114.364 41.6226 113.88 42.5966 113.511 43.2164C112.841 44.3851 110.419 47.2894 109.242 48.3873C107.857 49.6624 105.227 51.6457 105.227 51.4332C105.227 51.3093 105.735 50.778 106.334 50.2822C107.488 49.3436 109.842 47.0592 109.842 46.8821C109.842 46.8289 110.211 46.4039 110.649 45.9258C111.642 44.881 113.141 42.4372 113.672 41.0205C113.88 40.4361 114.203 39.7632 114.387 39.4798C114.757 38.9308 114.387 38.8069 113.949 39.3558C113.672 39.6746 113.395 39.71 110.396 39.71H107.142L106.311 40.9851C105.85 41.6934 104.927 42.8445 104.258 43.5528C101.327 46.5987 100.774 46.9883 94.2667 50.7426C92.2361 51.9114 89.8133 53.3635 88.8904 53.9479C87.229 54.9927 83.7679 58.1271 83.7679 58.5699C83.7679 58.6938 83.5141 59.2251 83.2141 59.7386C82.9141 60.2699 82.4988 61.2085 82.2911 61.846C81.7604 63.4044 81.322 66.9461 81.622 67.1763C81.7835 67.3003 81.9219 67.1586 82.0142 66.7336C82.1988 65.9544 82.4757 65.8305 83.1218 66.1669C83.3987 66.3263 83.8602 66.4503 84.1601 66.4503C84.5063 66.4503 84.6908 66.5742 84.737 66.8399C84.8062 67.2826 85.4523 67.4597 86.9521 67.4951C87.8059 67.5128 87.9674 67.4597 88.152 67.0524C88.2904 66.8044 88.3827 66.2023 88.3827 65.6888C88.3827 64.1127 89.6057 61.3147 90.1133 61.7043C90.2056 61.7574 90.1133 62.2002 89.9287 62.696C89.4441 63.9533 89.2826 65.0867 89.1211 68.6816C89.0057 70.6472 88.8673 71.8337 88.7288 71.816C88.6135 71.7806 88.475 71.2316 88.4289 70.5764C88.3597 69.3191 87.9212 68.5399 87.9212 69.6378C87.9212 69.9743 87.8289 70.3462 87.7366 70.4702C87.529 70.7358 82.9834 70.4702 82.4988 70.1691C82.3142 70.0451 82.1065 69.6733 82.0142 69.3014C81.7373 67.9555 81.5758 67.9909 81.4605 69.443C81.3912 70.4879 81.2528 70.966 81.022 71.0191C80.4913 71.1608 80.8144 64.1658 81.4374 62.0231C82.0142 60.0397 83.491 57.7021 85.1754 56.0729C87.1829 54.125 89.0288 52.9208 95.5357 49.2373C101.627 45.8018 104.327 43.1278 106.934 37.9391C108.203 35.4422 108.55 32.2015 107.88 28.9077C106.588 22.3908 100.797 16.5115 92.9514 13.7844C90.1594 12.8104 87.4367 12.1375 85.5446 11.925C83.0064 11.6593 78.8761 11.677 76.5456 11.9958C72.8538 12.4916 68.3081 13.8729 65.7238 15.3073C64.4086 16.0334 60.6936 18.7606 60.6936 19.0085C60.6936 19.097 60.3245 19.5929 59.863 20.1064C59.0323 21.0273 57.5786 23.2409 57.2325 24.1794C57.0479 24.6222 57.071 24.6576 57.6017 24.5513C58.017 24.4628 58.4093 24.5513 58.8708 24.817C59.24 25.0295 60.1399 25.2774 60.8782 25.3836C61.5935 25.4899 62.4011 25.6847 62.678 25.8086C63.0934 26.0211 63.2087 25.9857 63.7625 25.4545C64.1086 25.118 64.3855 24.7284 64.3855 24.569C64.3855 24.268 66.7852 21.7888 67.2006 21.6648C67.3159 21.6294 66.8314 22.32 66.093 23.17C64.3624 25.2597 64.4778 25.0649 63.7164 26.8712C63.2318 28.0045 62.9549 29.1556 62.7703 30.8556C62.6088 32.1661 62.4011 33.3172 62.3088 33.388C62.2165 33.4765 61.432 33.3703 60.5552 33.1755C59.6784 32.9984 57.9709 32.7859 56.771 32.7328C55.5712 32.6796 54.5328 32.5734 54.4405 32.4848C54.3482 32.414 54.3713 31.4754 54.4867 30.3952C54.8097 26.9597 56.5403 22.8159 58.64 20.4606C62.4011 16.2105 66.2084 13.8021 71.4001 12.35C72.7615 11.9604 73.7998 11.6416 73.6844 11.6239C73.5921 11.6062 73.223 11.5354 72.8999 11.4822C72.3 11.376 72.3 11.3583 72.3923 10.101C72.5307 8.20613 72.8768 7.16131 73.4075 7.03735C74.2151 6.84255 73.869 6.57692 72.9922 6.68317C69.7618 7.09047 63.6471 9.26865 60.2322 11.2166C57.9247 12.5271 55.0174 14.7761 53.333 16.4938C50.7486 19.1679 48.372 23.3294 47.426 26.8712C46.9183 28.6952 46.6876 32.6974 47.0337 33.0338C47.2414 33.2109 47.749 33.264 48.9719 33.1932C50.1026 33.1401 50.5871 33.1755 50.4256 33.2995C50.3102 33.4057 49.2719 33.512 48.1413 33.5474C46.4107 33.5828 46.0646 33.5474 45.8569 33.2995C45.4877 32.8567 46.0415 28.0931 46.7337 25.968C49.6411 16.8126 58.6631 9.26865 70.1541 6.45296C75.8303 5.05397 81.1143 4.73521 86.4906 5.46127ZM85.1293 20.6731C87.2059 21.0627 88.6365 21.6471 90.5056 22.9398C94.7281 25.7909 96.1587 28.3056 95.928 32.3609C95.628 37.7621 93.9898 39.4975 83.1218 45.8727C78.4377 48.6352 74.792 51.4686 72.3923 54.2312L71.5385 55.2052V54.4968C71.5385 54.1073 71.4462 53.6645 71.3309 53.5406C70.9617 53.0801 72.5307 51.5749 76.8456 48.2279C79.7299 46.0143 85.1293 42.4726 87.3444 41.3746C88.7058 40.7017 91.2901 38.7006 92.19 37.6027C93.6437 35.8141 94.5666 32.538 94.1513 30.6077C93.8744 29.2619 93.4821 28.3587 93.0437 27.9691C92.8361 27.792 92.513 27.3847 92.3284 27.0483C92.1208 26.7118 91.267 25.8618 90.4133 25.1357C89.0519 23.9846 88.6365 23.7367 86.8829 23.17C83.6756 22.1075 82.2681 21.9127 79.4991 22.1075C77.7455 22.2492 76.8225 22.4086 75.8765 22.7627C74.1459 23.418 71.4693 25.1534 71.1924 25.8264C71.054 26.1274 70.8232 26.4993 70.6617 26.6587C70.4771 26.818 69.9926 27.5618 69.5541 28.3233L68.7696 29.7046V33.9015C68.7696 36.2214 68.8388 38.1162 68.9081 38.1162C69.3234 38.1162 80.4913 33.7953 81.945 33.0692C83.6064 32.2546 85.9369 30.8202 88.1751 29.2796C89.1903 28.5712 89.3057 28.5358 89.3057 28.9077C89.3057 29.4744 84.7139 32.9276 82.9603 33.689C82.1988 34.0078 80.9297 34.6276 80.1683 35.0526C78.2301 36.0974 72.2308 38.2048 70.1772 38.559C69.0234 38.7715 68.0313 38.8246 67.0621 38.7538C63.6933 38.4881 60.1399 38.311 57.3479 38.311C54.4636 38.2933 54.3252 38.2756 54.1175 37.886C53.8406 37.4256 52.7561 37.3016 48.1182 37.2131C46.4799 37.1954 49.7103 37.1245 55.3173 37.0537C64.4317 36.9475 65.5623 36.912 66.1161 36.6287L66.716 36.3276L66.5776 34.0786C66.393 31.4223 66.7622 29.4035 67.8467 27.2608C69.2311 24.4982 71.1924 22.8159 74.2844 21.7179C75.2535 21.3814 76.4533 20.9387 76.961 20.7616C78.1608 20.3366 82.9141 20.2835 85.1293 20.6731ZM100.612 32.0067C100.612 36.3099 98.6738 39.6569 94.0821 43.2164C92.5592 44.4028 91.0132 45.4477 82.8449 50.7072C81.3682 51.6457 79.8914 52.726 79.5222 53.0979C79.153 53.4697 78.5531 54.0364 78.1839 54.3375C76.8225 55.4708 74.9535 58.4282 74.1459 60.7657C73.6152 62.3064 73.546 62.8731 73.4537 66.6274C73.3614 71.6035 73.2922 71.94 72.6461 71.94C72.1846 71.94 72.1846 71.8869 72.2769 67.1055C72.3923 62.6429 72.4384 62.1647 72.9691 60.5887C73.6152 58.7292 74.7228 56.9229 76.361 55.0281C77.9301 53.2041 83.0987 49.3259 87.6905 46.5279C94.8435 42.1715 97.1509 40.1882 98.6277 37.1245C99.5968 35.1235 99.8737 34.1672 100.058 32.0067C100.243 30.0765 100.612 30.0765 100.612 32.0067ZM84.7601 79.236C86.9521 79.5902 89.9748 80.8298 92.0515 82.2288C94.4282 83.8226 95.2819 84.7788 96.5741 87.3643C97.0817 88.3914 97.1509 88.7987 97.1279 90.5519C97.1048 92.5176 96.8279 94.8374 96.551 95.1739C96.4587 95.2624 96.3203 95.2624 96.1587 95.1562C95.9972 95.0676 95.628 94.9614 95.305 94.926C94.982 94.9083 94.7512 94.8197 94.7512 94.7312C94.7743 94.6603 94.8666 93.6686 94.9589 92.5176C95.0743 90.8884 95.0281 90.18 94.7512 89.206C93.5514 85.2924 89.8595 82.335 84.4832 80.9892C83.3525 80.7058 82.4065 80.6173 80.4683 80.6173C78.2993 80.6173 77.6763 80.6881 75.8996 81.1485C74.7689 81.4319 73.223 81.91 72.4615 82.2111L71.054 82.76L70.6386 82.3704C70.1079 81.8569 69.5541 82.0871 68.4466 83.2736C67.9851 83.7517 67.5236 84.159 67.3852 84.159C67.2698 84.159 66.9006 84.5309 66.6006 85.0091C66.3007 85.4695 65.8161 86.0362 65.5392 86.2841L65.0547 86.7268L65.1931 86.1955C65.6085 84.6903 68.7235 82.0694 71.5616 80.8298C75.415 79.1652 80.5606 78.5454 84.7601 79.236ZM83.791 83.5569C86.5599 84.1944 88.2212 85.0799 89.5595 86.6737C90.8286 88.1966 91.2209 89.5248 91.1055 91.9686C91.0132 93.7749 90.944 94.0759 90.344 94.9083C89.9979 95.4218 89.5595 95.8468 89.3749 95.8468C88.9596 95.8468 89.0057 95.4926 89.5134 94.5895C89.7672 94.1645 90.021 93.527 90.1133 93.1905C90.2287 92.6238 90.1825 92.5353 89.4903 92.1811C88.9596 91.9332 88.0366 91.7384 86.5368 91.5967C85.3369 91.4728 84.2294 91.278 84.114 91.154C83.7448 90.7998 82.3142 90.18 81.8758 90.18C81.645 90.18 80.8836 89.9675 80.1914 89.7196C78.3454 89.0466 77.8839 88.3383 77.9301 86.1424C77.9532 84.8851 77.8839 84.4778 77.6532 84.3892C76.5687 84.0882 72 86.8153 71.6308 87.9841C71.5385 88.2675 71.3539 88.6039 71.2386 88.7456C70.8694 89.0998 70.754 92.0926 71.077 93.2436C71.9077 96.3427 75.0227 98.6271 79.2453 99.2469C81.1605 99.5302 81.322 99.9198 79.5453 99.9198C78.1378 99.9198 75.5304 99.3 74.1459 98.6271C72.9691 98.0604 71.2386 96.5729 70.6386 95.6166C69.0004 92.978 69.0927 89.6842 70.9155 87.2935C72.1846 85.6466 75.3919 83.8226 77.8839 83.3267C79.2915 83.0611 82.0604 83.1673 83.791 83.5569Z" fill="black"/>
<path d="M103.45 15.0594C101.489 16.3698 101.281 16.5469 101.235 17.149C101.189 17.5386 101.327 17.6803 101.766 17.8042C102.273 17.9459 102.504 17.8574 103.612 17.0251C104.327 16.4938 105.296 15.8209 105.758 15.5198C106.704 14.9 106.773 14.7229 106.242 14.3156C105.642 13.8375 105.065 13.9969 103.45 15.0594Z" fill="black"/>
<path d="M109.38 4.98315C109.38 6.06339 109.449 6.39985 109.726 6.4884C109.957 6.54152 110.119 6.43527 110.211 6.15193C110.326 5.78004 110.488 5.70921 111.203 5.70921C113.026 5.70921 114.295 6.54152 116.464 9.10929C116.949 9.67597 117.364 9.78223 119.21 9.78223C121.31 9.78223 121.771 9.25096 120.225 8.57803C119.718 8.36553 119.118 7.95822 118.91 7.69259C118.679 7.42696 118.148 6.84257 117.687 6.39985C117.249 5.93942 116.695 5.33733 116.487 5.03628C115.91 4.20396 114.733 3.90292 112.103 3.8675C110.857 3.8675 109.842 3.79666 109.842 3.70812C109.842 3.63728 109.749 3.58416 109.611 3.58416C109.473 3.58416 109.38 4.16855 109.38 4.98315Z" fill="black"/>
<path d="M116.764 10.2604C115.933 10.2958 115.033 10.3489 114.757 10.4021C114.11 10.5083 114.064 10.8448 114.664 10.8448C115.218 10.8448 115.495 11.8719 115.264 13.1469C115.126 13.9792 115.172 14.0855 116.141 15.2189C116.695 15.8918 117.295 16.6001 117.433 16.8126C117.572 17.0251 117.941 17.4147 118.241 17.6627C118.702 18.0345 118.818 18.07 119.048 17.8575C119.533 17.4147 119.602 16.4053 119.21 15.5022C119.002 15.0418 118.771 14.0501 118.702 13.324C118.633 12.598 118.471 11.7656 118.356 11.4823C118.172 11.0573 118.218 10.9156 118.633 10.7031C119.025 10.5083 119.048 10.4198 118.818 10.2958C118.633 10.2073 118.448 10.1541 118.379 10.1719C118.31 10.1896 117.595 10.225 116.764 10.2604Z" fill="black"/>
<path d="M64.6163 113.379C56.0096 113.503 52.1562 113.68 48.7181 114.105C46.9183 114.317 46.8491 114.353 46.8491 114.884C46.8491 115.38 47.3798 115.823 48.0721 115.929C51.0256 116.389 54.5328 116.619 59.0785 116.655C61.9397 116.69 66.2546 116.814 68.6543 116.92C75.4612 117.257 88.7289 116.974 98.1893 116.283C102.712 115.946 103.266 115.823 103.266 115.061C103.266 114.583 103.173 114.512 101.881 114.229C98.4431 113.414 97.1279 113.343 85.1524 113.29C78.8762 113.255 69.6234 113.308 64.6163 113.379Z" fill="black"/>
</svg>
